# Blender v2.73 (sub 0) OBJ File: 'CubesVoxel.blend'
# www.blender.org
o Cube
v -0.500000 -0.500000 0.500000
v -0.500000 -0.500000 -0.500000
v 0.500000 -0.500000 -0.500000
v 0.500000 -0.500000 0.500000
v -0.500000 0.500000 0.500000
v -0.500000 0.500000 -0.500000
v 0.500000 0.500000 -0.500000
v 0.500000 0.500000 0.500000
v -0.500000 -0.500000 0.500000
v -0.500000 -0.500000 0.500000
v -0.500000 0.500000 0.500000
v -0.500000 0.500000 0.500000
v -0.500000 0.500000 -0.500000
v -0.500000 0.500000 -0.500000
v -0.500000 -0.500000 -0.500000
v -0.500000 -0.500000 -0.500000
v 0.500000 0.500000 -0.500000
v 0.500000 0.500000 -0.500000
v 0.500000 -0.500000 -0.500000
v 0.500000 -0.500000 -0.500000
v 0.500000 0.500000 0.500000
v 0.500000 0.500000 0.500000
v 0.500000 -0.500000 0.500000
v 0.500000 -0.500000 0.500000
vt 1.000000 0.000000
vt 1.000000 1.000000
vt 0.000000 1.000000
vt 0.000000 0.000000
vn -1.000000 0.000000 0.000000
vn 0.000000 0.000000 -1.000000
vn 1.000000 0.000000 0.000000
vn 0.000000 0.000000 1.000000
vn 0.000000 -1.000000 0.000000
vn 0.000000 1.000000 0.000000
s 1
f 6/1/1 2/2/1 1/3/1
f 7/1/2 3/2/2 15/3/2
f 8/1/3 4/2/3 19/3/3
f 11/1/4 9/2/4 23/3/4
f 16/1/5 20/2/5 24/3/5
f 18/1/6 14/2/6 12/3/6
f 5/4/1 6/1/1 1/3/1
f 13/4/2 7/1/2 15/3/2
f 17/4/3 8/1/3 19/3/3
f 21/4/4 11/1/4 23/3/4
f 10/4/5 16/1/5 24/3/5
f 22/4/6 18/1/6 12/3/6
